<svg id="Capa_2" data-name="Capa 2" xmlns="http://www.w3.org/2000/svg" viewBox="0 0 512.76 299.83"><defs><style>.cls-1{fill:#13b09f;stroke:#13b09f;}.cls-1,.cls-2,.cls-3,.cls-4{stroke-miterlimit:10;}.cls-2{font-size:164px;stroke-width:12px;font-family:MicrosoftSansSerif, Microsoft Sans Serif;}.cls-2,.cls-3{fill:#00509d;}.cls-2,.cls-3,.cls-4{stroke:#00509d;}.cls-4{fill:none;stroke-width:0.25px;}</style></defs><title>cinda</title><path class="cls-1" d="M566.08,332c-3.63-4.15-9.8-12.91-9.58-24.48.33-17.45,15.07-37,37-37a37,37,0,0,1,37,37,35.4,35.4,0,0,1-10.57,25.21l21.42,19.47a65.5,65.5,0,1,0-95.68,1.08Z" transform="translate(-331.12 -242)"/><path class="cls-1" d="M605.47,296.39a17.19,17.19,0,0,1,4.46,11.39c-.15,8.11-7,17.2-17.21,17.2a17.2,17.2,0,0,1-17.2-17.2,16.46,16.46,0,0,1,4.92-11.73l-10-9.05a30.46,30.46,0,1,0,44.49-.5Z" transform="translate(-331.12 -242)"/><path class="cls-1" d="M588.22,313.79a6.58,6.58,0,0,1-1.69-4.34,6.76,6.76,0,0,1,6.55-6.54,6.55,6.55,0,0,1,6.55,6.54,6.23,6.23,0,0,1-1.88,4.46l3.8,3.45a11.59,11.59,0,1,0-16.94.19Z" transform="translate(-331.12 -242)"/><text class="cls-2" transform="translate(108.78 251.71)">INDA</text><path class="cls-3" d="M421.1,461.8c-4.15,3.63-12.9,9.79-24.48,9.58-17.44-.33-37-15.07-37-37a37,37,0,0,1,37-37A35.36,35.36,0,0,1,421.83,408l19.47-21.42a65.51,65.51,0,1,0,1.08,95.67Z" transform="translate(-331.12 -242)"/><path class="cls-3" d="M385.51,422.4A17.23,17.23,0,0,1,396.9,418c8.11.15,17.2,7,17.2,17.2a17.2,17.2,0,0,1-17.2,17.21,16.42,16.42,0,0,1-11.72-4.92l-9.06,10a30.46,30.46,0,1,0-.5-44.49Z" transform="translate(-331.12 -242)"/><path class="cls-3" d="M402.91,439.65a6.52,6.52,0,0,1-4.33,1.7A6.76,6.76,0,0,1,392,434.8a6.55,6.55,0,0,1,6.55-6.55,6.3,6.3,0,0,1,4.46,1.87l3.44-3.79a11.6,11.6,0,1,0,.19,16.93Z" transform="translate(-331.12 -242)"/><path class="cls-4" d="M397,500" transform="translate(-331.12 -242)"/><path class="cls-4" d="M390,369" transform="translate(-331.12 -242)"/></svg>